<?xml version="1.0" encoding="utf-8"?>
<svg width="800px" height="800px" viewBox="0 0 24 24" fill="none" xmlns="http://www.w3.org/2000/svg">
  <defs/>
  <path fill-rule="evenodd" clip-rule="evenodd" d="M 12 2.75 C 11.342 2.75 10.695 2.962 9.081 3.514 L 8.508 3.71 C 6.995 4.228 5.892 4.606 5.118 4.921 C 4.731 5.078 4.451 5.209 4.254 5.324 C 4.157 5.38 4.09 5.426 4.046 5.463 C 4.008 5.494 3.993 5.511 3.991 5.513 C 3.989 5.517 3.977 5.537 3.959 5.587 C 3.939 5.643 3.917 5.723 3.896 5.835 C 3.852 6.062 3.819 6.373 3.796 6.793 C 3.75 7.634 3.75 8.808 3.75 10.417 L 3.75 11.991 C 3.75 17.167 7.62 19.714 10.199 20.84 C 10.57 21.002 10.785 21.094 11.024 21.155 C 11.252 21.214 11.53 21.25 12 21.25 C 12.47 21.25 12.748 21.214 12.976 21.155 C 13.215 21.094 13.43 21.002 13.801 20.84 C 16.38 19.714 20.25 17.167 20.25 11.991 L 20.25 10.417 C 20.25 8.808 20.25 7.634 20.204 6.793 C 20.181 6.373 20.148 6.062 20.104 5.835 C 20.083 5.723 20.061 5.643 20.041 5.587 C 20.023 5.537 20.011 5.517 20.009 5.513 C 20.007 5.511 19.992 5.493 19.954 5.463 C 19.91 5.426 19.843 5.38 19.746 5.324 C 19.549 5.209 19.269 5.078 18.882 4.921 C 18.108 4.606 17.005 4.228 15.492 3.71 L 14.919 3.514 C 13.305 2.962 12.658 2.75 12 2.75 Z M 8.723 2.051 C 10.167 1.557 11.063 1.25 12 1.25 C 12.938 1.25 13.833 1.557 15.277 2.051 C 15.319 2.066 15.362 2.08 15.405 2.095 L 16.004 2.3 C 17.485 2.807 18.629 3.199 19.447 3.531 C 19.859 3.698 20.214 3.861 20.499 4.026 C 20.774 4.186 21.049 4.385 21.236 4.652 C 21.421 4.915 21.517 5.239 21.577 5.551 C 21.64 5.876 21.677 6.265 21.702 6.711 C 21.75 7.598 21.75 8.814 21.75 10.39 L 21.75 11.991 C 21.75 18.092 17.142 21.018 14.402 22.215 L 14.375 22.226 C 14.035 22.375 13.715 22.514 13.348 22.608 C 12.961 22.708 12.549 22.75 12 22.75 C 11.451 22.75 11.039 22.708 10.652 22.608 C 10.285 22.514 9.965 22.375 9.625 22.226 L 9.598 22.215 C 6.858 21.018 2.25 18.092 2.25 11.991 L 2.25 10.39 C 2.25 8.814 2.25 7.598 2.298 6.711 C 2.323 6.265 2.36 5.876 2.423 5.551 C 2.483 5.239 2.579 4.915 2.764 4.652 C 2.951 4.385 3.226 4.186 3.501 4.026 C 3.786 3.861 4.141 3.698 4.553 3.531 C 5.371 3.199 6.515 2.807 7.996 2.3 L 8.595 2.095 C 8.638 2.08 8.681 2.066 8.723 2.051 Z" style="fill: rgb(49, 54, 255);"/>
  <path fill-rule="evenodd" clip-rule="evenodd" d="M 10.608 17.002 C 10.796 16.741 10.856 16.475 10.852 16.239 C 11.073 16.304 11.292 16.312 11.501 16.272 C 11.934 16.19 12.254 15.916 12.425 15.691 L 12.427 15.687 L 12.43 15.683 C 12.726 15.27 12.725 14.847 12.653 14.544 C 12.618 14.396 12.565 14.274 12.521 14.188 C 12.499 14.145 12.479 14.11 12.463 14.085 C 12.458 14.078 12.454 14.072 12.451 14.067 C 12.401 13.973 12.344 13.9 12.297 13.845 L 12.302 13.839 L 12.564 13.579 C 12.779 13.682 13.012 13.746 13.216 13.789 C 13.546 13.857 13.869 13.88 14.074 13.88 C 16.272 13.88 18.057 12.105 18.057 9.911 C 18.057 7.718 16.272 5.943 14.074 5.943 C 11.876 5.943 10.091 7.718 10.091 9.911 C 10.091 10.428 10.208 10.871 10.325 11.182 C 10.354 11.262 10.384 11.333 10.412 11.396 L 6.323 15.467 C 6.179 15.611 6.01 15.861 5.958 16.174 C 5.903 16.514 5.994 16.892 6.323 17.22 L 6.82 17.715 C 6.828 17.723 6.836 17.73 6.844 17.737 C 6.988 17.86 7.229 18.001 7.519 18.044 C 7.829 18.09 8.188 18.019 8.493 17.715 L 8.812 17.397 C 9.113 17.57 9.43 17.608 9.724 17.553 C 10.104 17.479 10.421 17.252 10.603 17.01 L 10.606 17.006 L 10.608 17.002 Z M 10.936 9.911 C 10.936 8.188 12.339 6.788 14.074 6.788 C 15.809 6.788 17.212 8.188 17.212 9.911 C 17.212 11.635 15.809 13.035 14.074 13.035 C 13.92 13.035 13.655 13.016 13.387 12.961 C 13.108 12.903 12.888 12.817 12.771 12.72 C 12.603 12.581 12.357 12.592 12.203 12.746 L 11.706 13.241 C 11.592 13.354 11.483 13.482 11.425 13.63 C 11.352 13.817 11.375 13.998 11.459 14.148 C 11.508 14.237 11.588 14.321 11.622 14.357 L 11.633 14.369 C 11.672 14.412 11.694 14.44 11.709 14.472 L 11.724 14.502 L 11.741 14.525 L 11.745 14.531 C 11.75 14.539 11.758 14.554 11.769 14.574 C 11.79 14.615 11.815 14.673 11.831 14.741 C 11.862 14.87 11.862 15.023 11.747 15.186 C 11.667 15.289 11.517 15.409 11.344 15.442 C 11.198 15.47 10.962 15.451 10.646 15.137 C 10.481 14.973 10.215 14.973 10.05 15.137 L 9.884 15.302 C 9.728 15.457 9.718 15.706 9.86 15.874 C 9.86 15.875 9.862 15.877 9.866 15.882 C 9.873 15.891 9.884 15.906 9.897 15.927 C 9.924 15.97 9.955 16.029 9.979 16.096 C 10.021 16.223 10.028 16.359 9.925 16.505 C 9.857 16.593 9.72 16.693 9.564 16.722 C 9.433 16.747 9.264 16.729 9.073 16.539 C 8.908 16.375 8.641 16.375 8.476 16.539 L 7.897 17.117 C 7.804 17.209 7.722 17.22 7.642 17.208 C 7.547 17.194 7.455 17.144 7.403 17.102 L 6.92 16.621 C 6.786 16.488 6.78 16.385 6.792 16.311 C 6.809 16.21 6.871 16.114 6.92 16.066 L 11.227 11.776 C 11.366 11.637 11.391 11.421 11.286 11.255 L 11.285 11.253 C 11.284 11.25 11.281 11.245 11.277 11.239 C 11.268 11.224 11.255 11.2 11.24 11.169 C 11.207 11.105 11.162 11.009 11.117 10.888 C 11.025 10.642 10.936 10.302 10.936 9.911 Z M 9.86 15.874 C 9.86 15.875 9.861 15.876 9.862 15.877 L 9.861 15.876 L 9.86 15.874 Z" style="fill: rgb(248, 248, 248);"/>
</svg>